<?xml version="1.0" encoding="UTF-8"?>
<svg version="1.1" xmlns="http://www.w3.org/2000/svg" width="599" height="590">
<path d="M0 0 C7.46859744 1.4513556 14.37014678 3.80820511 21.5 6.4375 C24.01851665 7.35191886 26.53762085 8.26428997 29.05859375 9.171875 C29.71029037 9.40653976 30.361987 9.64120453 31.03343201 9.88298035 C38.16962527 12.43944352 45.36348836 14.81516154 52.5625 17.1875 C64.93941905 21.27454812 77.26203315 25.50102878 89.5625 29.8125 C107.93696179 36.25007528 126.33723694 42.61051394 144.75 48.9375 C145.7810511 49.29185749 145.7810511 49.29185749 146.83293152 49.65337372 C166.09012927 56.27162933 185.35946891 62.85330437 204.64187622 69.39779663 C220.80960368 74.88713688 236.93977239 80.48053351 253.05200195 86.13061523 C261.67993176 89.15495332 270.31154156 92.15289757 279 95 C277.1272219 105.21659774 270.10229952 112.77893292 263 120 C261.96746094 121.051875 261.96746094 121.051875 260.9140625 122.125 C239.71863356 142.29611453 208.67833853 147.77068606 180.49462891 147.08886719 C157.37120753 146.26513207 134.90589066 141.27486113 113 134 C112.15324707 133.72349609 111.30649414 133.44699219 110.43408203 133.16210938 C87.4827929 125.57589704 65.51163896 115.34744734 46 101 C45.09507812 100.34386719 44.19015625 99.68773437 43.2578125 99.01171875 C25.04720562 85.30650423 9.42189886 67.84331209 2 46 C2 45.01 2 44.02 2 43 C1.41154297 42.89623047 0.82308594 42.79246094 0.21679688 42.68554688 C-6.52713115 41.42534453 -12.97412498 39.60200017 -19.5 37.5 C-20.48742187 37.19191406 -21.47484375 36.88382812 -22.4921875 36.56640625 C-23.43320313 36.26605469 -24.37421875 35.96570313 -25.34375 35.65625 C-26.61508789 35.25116211 -26.61508789 35.25116211 -27.91210938 34.83789062 C-30 34 -30 34 -32 32 C-32.85584053 25.53143787 -32.66287534 19.31046834 -29.25390625 13.6328125 C-27.05987872 10.77579222 -25.34084442 9.38676561 -22 8 C-15.3813279 8.22866813 -8.99647429 11.46627847 -3 14 C-2.01 9.38 -1.02 4.76 0 0 Z " fill="#000000" transform="translate(240,344)"/>
<path d="M0 0 C1.5625 1.4375 1.5625 1.4375 2.6484375 4.55078125 C2.55161511 8.92979375 2.26140585 9.27213737 -0.70703125 12.1640625 C-2.20583465 13.48141149 -3.7212688 14.78000208 -5.25 16.0625 C-19.0394692 28.3551187 -32.92724084 44.7027069 -34.7734375 63.9375 C-34.99670058 73.47358106 -34.99670058 73.47358106 -30.4375 81.4375 C-26.86564357 82.80544502 -25.26969024 82.7858587 -21.75 81.3125 C-17.64460764 77.9838035 -16.25295359 74.54520474 -15.4375 69.4375 C-15.34641164 67.54339783 -15.30743649 65.64628439 -15.3125 63.75 C-15.31507813 62.70585937 -15.31765625 61.66171875 -15.3203125 60.5859375 C-15.46005298 56.83157658 -15.95376251 53.19301971 -16.609375 49.49609375 C-16.4375 47.4375 -16.4375 47.4375 -14.6328125 45.62890625 C-12.4375 44.4375 -12.4375 44.4375 -9.5625 44.9375 C-1.97849306 48.57782333 1.96186078 53.95424379 5.5625 61.4375 C7.27247225 66.4098425 7.98033868 71.07767429 8 76.3125 C8.00386719 77.04791016 8.00773438 77.78332031 8.01171875 78.54101562 C7.89942555 84.03870344 6.80518014 88.7450491 5.0625 93.9375 C-0.03301874 109.21875023 1.96947203 123.45048287 9 137.8125 C11.16381388 142.10140178 13.44495497 145.77866693 16.5625 149.4375 C16.63597656 147.88289063 16.63597656 147.88289063 16.7109375 146.296875 C16.78599597 144.92705792 16.86154247 143.55726752 16.9375 142.1875 C16.9684375 141.50558594 16.999375 140.82367188 17.03125 140.12109375 C17.24346581 136.47805565 17.46228534 133.48961051 19.5625 130.4375 C22.52043723 128.95853139 24.26470224 129.0019418 27.5625 129.4375 C33.05430049 133.02077356 36.85221383 138.09383463 40.5 143.4375 C41.27150391 144.55680908 41.27150391 144.55680908 42.05859375 145.69873047 C43.58023104 147.9322087 45.07762956 150.17943958 46.5625 152.4375 C46.97773926 153.06817383 47.39297852 153.69884766 47.82080078 154.34863281 C58.16575654 170.37257021 61.32845079 188.28164716 57.796875 207.01953125 C56.22866766 214.11469341 54.01955953 221.02696835 50.5625 227.4375 C50.25570313 228.05496094 49.94890625 228.67242187 49.6328125 229.30859375 C48.6875 231 48.6875 231 46.5625 233.4375 C43.3125 233.8125 43.3125 233.8125 40.5625 233.4375 C38.33409201 228.98068403 40.43879816 222.76813293 41.625 218.125 C43.52490744 209.90646101 43.69446157 201.90681515 39.5625 194.4375 C37.21660981 190.91866472 35.93553776 190.8314657 31.95117188 190.0065918 C30.8306543 189.78676636 30.8306543 189.78676636 29.6875 189.5625 C18.18413164 187.05855493 8.35271291 183.53505073 -0.4375 175.4375 C-1.11425781 174.81488281 -1.79101562 174.19226563 -2.48828125 173.55078125 C-12.34583128 163.50182249 -17.24363529 149.8853514 -20.4375 136.4375 C-21.4275 137.0975 -22.4175 137.7575 -23.4375 138.4375 C-28.82527611 139.17699868 -32.06023365 138.0997806 -36.3984375 135.1015625 C-49.6147161 124.31586388 -56.75392454 108.0079271 -59.4375 91.4375 C-59.65448487 89.00244763 -59.84040745 86.56448616 -60 84.125 C-60.08378906 82.87074219 -60.16757812 81.61648437 -60.25390625 80.32421875 C-60.31449219 79.37160156 -60.37507812 78.41898437 -60.4375 77.4375 C-65.94103705 85.69280557 -65.81039676 96.09804279 -65.875 105.6875 C-66.37206489 126.51451885 -70.88234326 141.70932697 -86.10644531 156.56103516 C-96.51674622 166.38930812 -109.6813627 175.57006957 -124.3125 176.75 C-132.91561557 176.43565539 -138.42560398 172.96964475 -144.875 167.5078125 C-153.63574679 160.42977012 -161.16411832 157.33952625 -172.4375 158.4375 C-182.78159991 160.9219415 -192.84785063 165.84785063 -200.4375 173.4375 C-203.5625 173.0625 -203.5625 173.0625 -206.4375 172.4375 C-207.37889563 168.91238265 -207.84313555 167.16651722 -206.03125 163.91015625 C-205.3403125 163.11480469 -204.649375 162.31945312 -203.9375 161.5 C-203.195 160.63890625 -202.4525 159.7778125 -201.6875 158.890625 C-197.47580661 154.29870929 -193.14530029 150.02061141 -188.4375 145.9375 C-187.10191566 144.77341093 -185.76856734 143.60675131 -184.4375 142.4375 C-183.78007812 141.86 -183.12265625 141.2825 -182.4453125 140.6875 C-178.43237846 136.957636 -176.03438931 134.10794844 -175.4375 128.4375 C-177.95078507 118.04925504 -185.47951634 110.97561273 -193.43725586 104.33081055 C-195.8083613 102.28416017 -197.31786889 100.76098252 -198.4140625 97.796875 C-198.4375 95.4375 -198.4375 95.4375 -196.4375 92.4375 C-191.02497263 91.58627166 -187.21346749 93.61525886 -182.5625 96.0625 C-181.84924561 96.43149414 -181.13599121 96.80048828 -180.40112305 97.18066406 C-168.02263775 103.70804309 -158.23479442 113.57121055 -148.4375 123.4375 C-147.839375 123.994375 -147.24125 124.55125 -146.625 125.125 C-145.4375 126.4375 -145.4375 126.4375 -145.4375 128.4375 C-144.880625 128.685 -144.32375 128.9325 -143.75 129.1875 C-141.03778873 130.65356015 -138.80162635 132.46739471 -136.4375 134.4375 C-136.48970703 133.48617187 -136.48970703 133.48617187 -136.54296875 132.515625 C-136.74467673 125.56150224 -136.1126466 118.86917269 -135.125 112 C-135.00729248 111.13600586 -134.88958496 110.27201172 -134.76831055 109.38183594 C-134.07441724 104.83046408 -133.38548164 101.13736585 -130.4375 97.4375 C-128 96.8125 -128 96.8125 -125.4375 97.4375 C-123.27417287 99.60082713 -121.76678901 101.82282719 -120.32421875 104.515625 C-118.18583979 108.38838951 -117.2023294 110.11766225 -113 111.875 C-109.23808791 111.4130108 -108.73517297 111.24073945 -106.3125 108.625 C-100.34824027 100.34042702 -97.23774354 91.29505378 -94.4375 81.5625 C-86.2651548 53.35794277 -72.27307759 26.24679507 -45.60302734 11.41748047 C-37.84429169 7.23182181 -30.09724333 3.34121217 -21.4375 1.4375 C-20.06658203 1.13392578 -20.06658203 1.13392578 -18.66796875 0.82421875 C-12.40441192 -0.4353474 -6.31843958 -1.45810144 0 0 Z " fill="#000000" transform="translate(456.4375,167.5625)"/>
<path d="M0 0 C1.10915771 0.4230542 2.21831543 0.8461084 3.36108398 1.28198242 C6.00286639 2.29015544 8.64061753 3.30819201 11.27636719 4.33203125 C16.90964972 6.51920098 22.55284515 8.68041138 28.1953125 10.84375 C37.20504679 14.30025837 46.21115182 17.76606603 55.21484375 21.23828125 C67.37867385 25.92859829 79.55354929 30.58952074 91.73657227 35.22973633 C98.53662859 37.82214066 105.31762384 40.4543078 112.0625 43.1875 C110.94552359 46.14948208 109.88584703 48.44143864 108.0625 51.0625 C104.9238488 55.9666425 104.05013526 60.70997807 103.51171875 66.421875 C103.38349731 67.76330566 103.38349731 67.76330566 103.25268555 69.13183594 C103.18992432 69.81020508 103.12716309 70.48857422 103.0625 71.1875 C81.53700248 64.69200604 60.03441592 58.12554185 38.55688477 51.47314453 C35.50335957 50.52747117 32.44930653 49.5835323 29.39477539 48.64111328 C14.67521866 44.09912492 -0.04323577 39.55021567 -14.68359375 34.7578125 C-15.63549088 34.45156952 -16.587388 34.14532654 -17.56813049 33.82980347 C-22.7675261 32.10450385 -27.28127148 30.08119236 -31.9375 27.1875 C-31.9375 26.5275 -31.9375 25.8675 -31.9375 25.1875 C-32.5975 25.1875 -33.2575 25.1875 -33.9375 25.1875 C-37.33680977 19.34493633 -38.9345521 14.96493012 -37.9375 8.1875 C-36.13060006 2.42800645 -32.08637874 -0.91743448 -26.9375 -3.8125 C-17.52480165 -6.20318428 -8.76264262 -3.44730633 0 0 Z " fill="#000000" transform="translate(92.9375,302.8125)"/>
<path d="M0 0 C1.0209375 0.61875 1.0209375 0.61875 2.0625 1.25 C1.62575416 5.83583127 1.12506707 10.21914852 0 14.6875 C-2.56086566 25.75891169 -0.26909587 35.66155973 4.16015625 45.890625 C7.97476222 55.86474624 6.79196627 67.44511287 3.0625 77.25 C1.6343842 80.43080337 -0.04880607 83.32179235 -1.9375 86.25 C-2.85595703 87.71953125 -2.85595703 87.71953125 -3.79296875 89.21875 C-8.81087164 96.75045724 -8.81087164 96.75045724 -12.0078125 98.16796875 C-13.9375 98.4375 -13.9375 98.4375 -16.9375 98.25 C-18.9375 95.25 -18.9375 95.25 -18.6953125 93.40234375 C-18.48648437 92.67144531 -18.27765625 91.94054687 -18.0625 91.1875 C-14.84109556 76.01014484 -17.6436569 62.22936535 -21.53491211 47.50317383 C-24.48787116 35.81558659 -25.27740905 24.00179096 -18.9375 13.25 C-7.57662515 -1.93445749 -7.57662515 -1.93445749 0 0 Z " fill="#000000" transform="translate(403.9375,65.75)"/>
<path d="M0 0 C6.22420905 1.10450474 10.66957503 6.36307157 14.515625 11.046875 C20.60146047 19.91899659 22.27817235 30.70348458 20.38647461 41.17529297 C19.64523703 44.42477885 18.83997046 47.6496672 18 50.875 C17.44748596 53.0568536 16.89664901 55.23913272 16.34765625 57.421875 C16.10152588 58.37416992 15.85539551 59.32646484 15.60180664 60.30761719 C14.22457768 66.14856617 13.75524514 71.6560297 13.75 77.625 C13.73163086 78.72521484 13.73163086 78.72521484 13.71289062 79.84765625 C13.70077387 84.36316606 14.34247686 87.84628712 15.9375 92.125 C15.875 94.875 15.875 94.875 14.9375 97.125 C12.375 98.4375 12.375 98.4375 9.9375 99.125 C-1.69072303 88.58692288 -8.12323436 75.7718939 -9.375 60.25 C-9.15103043 52.82914143 -6.73822556 45.65096084 -3.875 38.875 C-0.36291563 29.54096038 -0.85599453 18.49195639 -4.40625 9.23828125 C-5.18478569 6.73121097 -5.30495747 4.73574745 -5.0625 2.125 C-3.0625 0.125 -3.0625 0.125 0 0 Z " fill="#000000" transform="translate(321.0625,142.875)"/>
<path d="M0 0 C1.79296875 0.11328125 1.79296875 0.11328125 4 1 C5.67578125 3.73046875 5.67578125 3.73046875 7.3125 7.1875 C11.00009766 14.52885502 15.03223375 18.26683724 22 22.375 C29.60017059 26.97937519 34.44774387 33.69395946 36.5625 42.28515625 C37.07641678 45.4741934 37.13230632 48.52060675 37.125 51.75 C37.12757813 52.89984375 37.13015625 54.0496875 37.1328125 55.234375 C37 58 37 58 36 59 C34.33382885 59.04063832 32.66611905 59.042721 31 59 C30.731875 58.3709375 30.46375 57.741875 30.1875 57.09375 C25.93135704 47.79743774 20.1099641 42.47611437 11.9375 36.5 C5.49730873 31.77773586 -0.58778869 26.86493083 -3 19 C-3.30078125 15.37109375 -3.30078125 15.37109375 -3.3125 11.4375 C-3.33763672 9.48650391 -3.33763672 9.48650391 -3.36328125 7.49609375 C-2.99091545 3.91257346 -2.45776619 2.54855439 0 0 Z " fill="#000000" transform="translate(422,320)"/>
<path d="M0 0 C2.0625 0.4375 2.0625 0.4375 4 1 C4.495576 6.94691197 3.46123955 11.0792016 0 16 C-4.80718333 20.48670444 -10.35540144 22.36238985 -16.43188477 24.61401367 C-21.40556437 26.54025077 -24.84868111 28.92056037 -28.484375 32.77734375 C-28.98453125 33.18082031 -29.4846875 33.58429688 -30 34 C-30.99 33.67 -31.98 33.34 -33 33 C-32.59542291 25.44789441 -30.40949745 20.16120367 -24.80078125 14.9609375 C-21.53152553 12.67200254 -18.15092184 11.25520989 -14.4375 9.875 C-7.14177117 7.70215594 -7.14177117 7.70215594 -1.8125 2.9375 C-1.544375 2.298125 -1.27625 1.65875 -1 1 C-0.67 0.67 -0.34 0.34 0 0 Z " fill="#000000" transform="translate(385,319)"/>
<path d="M0 0 C1.87890625 0.5546875 1.87890625 0.5546875 4 2 C4.82748715 4.42610928 5.42362401 6.63444644 5.9375 9.125 C7.19513235 14.56225853 8.77521466 18.85909271 12.02734375 23.4140625 C13.38938425 25.63489963 13.3958945 27.46627518 13 30 C10.69140625 30.23046875 10.69140625 30.23046875 8 30 C1.49505862 24.07667691 -1.63687696 13.24024111 -2.2265625 4.73046875 C-2 2 -2 2 0 0 Z " fill="#000000" transform="translate(397,277)"/>
</svg>
