<svg xmlns="http://www.w3.org/2000/svg" version="1.1" viewBox="-5.0 -10.0 110.0 135.0">
 <g>
  <path d="m69.078 14.609c-0.10547 0.003906-0.21094 0.03125-0.30859 0.082031 0 0-1.0742 0.58203-1.9531 1.7617s-1.5859 3.0469-0.89844 5.4062c1.2383 4.2383 1.3398 6.2539 0.57031 8.1094h0.003907c-0.13281 0.33203 0.003906 0.71094 0.3125 0.88672 0.3125 0.17578 0.70703 0.09375 0.92187-0.19141l1.5195-2.0469c0.003906-0.007813 0.007812-0.015626 0.011718-0.019532 0 0 2.2852-3.3086 0.49609-6.9805-1.4453-2.9688 0-5.9844 0-5.9844v-0.003906c0.10938-0.22266 0.089844-0.49219-0.046875-0.69922-0.14062-0.21094-0.37891-0.33203-0.62891-0.32031zm-13.512 12.934v-0.003907c-0.23828 0.015626-0.45703 0.15234-0.57422 0.35938-0.12109 0.20703-0.125 0.46094-0.019532 0.67578 0 0 1.4453 3.0156 0 5.9844-1.7852 3.6719 0.50781 6.9766 0.50781 6.9766 0.003906 0.007813 0.007812 0.015625 0.007812 0.023438l1.4805 1.9961 0.042969 0.054687v-0.003906c0.23438 0.28125 0.64062 0.33594 0.94531 0.13281 0.30469-0.19922 0.40625-0.59766 0.23828-0.92188-0.79297-1.3203-0.62891-3.7695 0.60938-8.0117 0.6875-2.3594-0.019532-4.2266-0.89844-5.4062-0.87891-1.1797-1.9414-1.7617-1.9414-1.7617-0.097656-0.058594-0.20703-0.089844-0.31641-0.097657h-0.082032zm21.344 4.0117v-0.003907c-0.16797 0-0.32812 0.0625-0.45703 0.16797 0 0.003906-0.003906 0.007812-0.007813 0.011719-1.6836 0.10938-4.2461 0.69141-6.9453 2.6797-2.8828 2.125-5.707 5.6914-6.9805 11.348-0.92578 3.2969-2.0352 4.4258-2.6602 4.6328-0.31641 0.10547-0.55859 0.0625-0.82422-0.082031-0.26562-0.14453-0.51953-0.41406-0.66406-0.66406l-0.83594-1.4258v0.003906c-0.14844-0.25781-0.44141-0.39453-0.73438-0.34375-0.29297 0.046875-0.52344 0.27344-0.58203 0.5625 0 0-0.58594 2.9453-0.71875 5.7422-0.33203-0.19531-0.88672-0.62891-1.543-1.2656-1.4453-1.4023-3.1445-3.3594-4.5273-4.2344-2.0039-1.2656-2.6914-1.3984-2.9883-1.457-0.027344-0.003906-0.24609-0.125-0.26172-0.12891l0.35937 0.14844c-0.003906-0.003906-0.074218-0.054688-0.074218-0.054688v0.003906c-0.25-0.19922-0.60547-0.20703-0.86719-0.019531-0.011718 0.003907-0.019531 0.007813-0.03125 0.011719-0.003906 0.003906-0.003906 0.007812-0.007812 0.007812-0.17578 0.12891-0.28516 0.33203-0.29688 0.54688-0.007813 0.21875 0.082031 0.42969 0.24609 0.57422 0 0 0.070313 0.058594 0.125 0.10547l0.13672 0.16797c0.042969 0.058594 0.089844 0.10547 0.14844 0.14844 0 0 0.30859 0.22266 0.70703 0.55078 0.24609 0.21875 0.57812 0.52734 0.89844 0.82422 0.61719 0.62891 1.2227 1.418 1.4883 2.1602 0.26953 0.75391 0.27344 1.3867-0.32812 2.1211-0.89453 1.0664-1.6992 1.6992-2.5039 2.3672-0.75391 0.625-1.4961 1.3555-2.1602 2.3984 0 0-0.035156 0.007813-0.035156 0.007813l0.011719 0.011719c-0.039063 0.0625-0.085938 0.074218-0.125 0.13672-0.19531 0.30859-0.125 0.71094 0.15625 0.9375 0.28516 0.22656 0.69531 0.20703 0.95312-0.050781 0 0 2.8828-2.6602 5.9219-2.4805v-0.011718c0.67188 0.046874 1.6094 0.50391 2.4062 1.0352 0.78906 0.52344 1.3867 1.0586 1.7383 1.3203l0.011719 0.011719h0.011718c0.72656 0.58203 1.6953 0.92188 2.8086 0.80078 1.1172-0.12109 2.3672-0.65625 3.875-1.6797 2.9023-1.9727 4.2578-4.0078 4.8477-5.7773 0.58984-1.7656 0.42188-3.2734 0.42188-3.9766 0-1.0664-0.074219-2.8008 1.0156-5.457 0.13672-0.33203 0.17578-0.30859 0.29688-0.5625-0.070313 2.2617 0.10156 5.375 1.9961 8.3281 0.70312 1.0977 1.3203 1.8086 1.9141 2.2578s1.2031 0.64453 1.75 0.55859c0.43359-0.066406 0.69922-0.32812 0.9375-0.57031 0.15625 0.35547 0.32812 0.76953 0.32812 1.0469 0 0.44922 0.12891 0.91797 0.33594 1.4766 0.20312 0.55859 0.49219 1.1914 0.86719 1.8359 0.74219 1.2852 1.793 2.6172 3.168 3.4102 2.293 1.3242 4.1445 1.4453 4.5078 1.457 0 0 0.53516 0.0625 0.99219 0.82031 0.45703 0.76172 0.82031 2.332-0.21875 5.5234l-0.007812 0.007813c-0.10547 0.34375 0.058594 0.71094 0.38281 0.85938 0.32422 0.14844 0.71094 0.035156 0.90234-0.26562 0 0 0.050782-0.14453 0.054688-0.14844h0.011718c0.003907-0.011719-0.003906-0.011719 0-0.023438 0.16016-0.26562 3.8711-6.5234-0.125-12.488-0.96094-1.4375-1.6797-2.4492-2.2383-3.125-0.27734-0.33984-0.51953-0.59375-0.75781-0.78906-0.23828-0.19922-0.48438-0.40234-0.92578-0.36719-0.21875 0.015625-0.46094 0.12891-0.60156 0.27344-0.14062 0.14453-0.20703 0.29688-0.25391 0.43359-0.097657 0.27344-0.11328 0.54297-0.125 0.84375-0.019531 0.57422 0.039062 1.3125 0.09375 2.1758-0.34375-0.26953-0.87109-0.75391-1.3945-1.625-1.2148-2.0234-2.1523-5.1484-1.1719-7.5586 1.1875-2.9062 0.73438-5.1055-0.074218-6.5039-0.80859-1.3984-1.9766-2.0469-1.9766-2.0469l-0.003906-0.003906c-0.25-0.13672-0.55078-0.11719-0.77734 0.050781-0.22656 0.16797-0.33203 0.45312-0.26953 0.73047 0 0 0.30859 1.3984 0.21094 2.7969-0.046876 0.69922-0.21094 1.375-0.48438 1.8477-0.27734 0.47266-0.61328 0.76953-1.2695 0.86719-0.60938 0.089843-1.0312-0.10938-1.3906-0.63281-0.35938-0.52344-0.58984-1.4258-0.46484-2.5977 0.24609-2.3438 1.9023-5.7383 6.1016-9.1523v-0.003906c0.11328-0.09375 0.19531-0.21875 0.23438-0.35547 0.082031-0.27734-0.050781-0.66406-0.21875-0.83594-0.17188-0.17188-0.32422-0.22656-0.47656-0.27344-0.30078-0.09375-0.60547-0.11328-0.98438-0.10547zm-8.4258 18.398v-0.003906c-0.007813 0-0.015625 0.003906-0.019531 0.003906-0.24609 0.03125-0.41797 0.25-0.39062 0.49219 0.16406 1.4648 0.56641 2.5234 0.9375 3.2188 0.37109 0.69922 0.73828 1.0547 0.73828 1.0547v0.003906c0.17578 0.16797 0.44922 0.16797 0.625 0 0.085938-0.082031 0.13281-0.19922 0.13281-0.31641s-0.046874-0.23438-0.13281-0.31641c0 0-0.25391-0.23828-0.57812-0.84375-0.32422-0.60547-0.69531-1.5547-0.84766-2.9062-0.027344-0.23047-0.23047-0.40234-0.46484-0.39062zm-1.8984 6.9648v-0.003907c-0.12891-0.003906-0.25 0.0625-0.31641 0.17969 0 0-0.80469 1.3828-2.3672 1.6094-1.9336 0.28125-2.6211 2.082-2.6211 2.082v-0.003906l-0.007812 0.007812-0.39063 1.1211-0.007812 0.03125-0.003906 0.003906c-0.046875 0.16797 0.039062 0.34375 0.20312 0.41016 0.16016 0.066406 0.34766-0.003907 0.42969-0.15625 0.30859-0.66797 1.3242-1.2617 3.3359-1.9141 1.1172-0.36328 1.6641-1.1445 1.8984-1.8086 0.23047-0.66406 0.17188-1.2422 0.17188-1.2422l-0.003906-0.003906c-0.003906-0.050781-0.019531-0.10547-0.046875-0.14844-0.003906-0.011719-0.011719-0.023437-0.019531-0.035156-0.0625-0.078125-0.15234-0.125-0.25391-0.12891zm6.1094 0.17188v-0.003906c-0.085937 0.007812-0.17187 0.039062-0.24219 0.089843l-0.046875 0.035157c-0.054688 0.050781-0.10156 0.11719-0.12891 0.1875 0 0-0.31641 0.76953-0.27344 1.7773 0.042969 1.0078 0.46875 2.3047 1.8516 3.2617 2.4883 1.7266 3.6328 2.957 3.7812 4.0039h0.003906c0.050781 0.24219 0.27344 0.41016 0.52344 0.38672 0.24609-0.023437 0.4375-0.22656 0.44531-0.47656v-0.042968l-0.074219-1.6992v-0.003906c0-0.003907 0-0.011719-0.003906-0.015625 0 0-0.20703-2.75-2.7383-3.9336-2.0508-0.95703-2.582-3.1875-2.582-3.1875-0.050782-0.23828-0.27344-0.40234-0.51563-0.38281z"/>
  <path d="m14.387 53.445c-1.043 0.011719-2.207 0.42578-2.875 1.9297-0.60938 2.5625 1.4805 3.6641 2.5625 4.0547 0.35938 0.12891 0.60938 0.18359 0.60938 0.18359l20.16 6.2422c-0.12891-0.70703-0.10156-1.5117 0.1875-2.3672s0.75781-1.5117 1.2891-1.9961l-19.715-7.5664s-0.23047-0.10938-0.59766-0.22656c-0.41016-0.12891-0.99219-0.26562-1.6211-0.25781zm27.945 7.6484c-0.03125 0.09375-0.039062 0.1875-0.046875 0.28125l-0.042968-0.015625-0.19141 0.76172s-0.12109 0.54688-0.15625 1.4609l-3.0391-1.1445c-2.0391 0.14453-2.543 3.9883-1.418 4.1914l5.0938 1.5312c0.17578 0.57031 0.38672 1.1602 0.66797 1.7695 1.9727 4.3203 6.7266 9.4922 17.535 13.141 10.809 3.6523 17.727 2.4219 21.91 0.17969 4.1875-2.2383 5.6406-5.5156 5.6406-5.5156l0.30469-0.71875-0.015625-0.007813c-19.328-1.9414-31.188-7.1992-46.242-15.914zm22.137 7.6211c-0.027344 0.015625-0.054688 0.039062-0.082031 0.054687l-1.3477 0.79297 1.4766 0.50391c0.17188 0.058594 0.34766 0.12109 0.54688 0.19141 4.9219 1.6641 9.6328 2.9766 13.473 3.8086 1.1406 0.24609 2.1953 0.43359 3.1758 0.58203z"/>
  <path d="m42.336 61.094 46.246 15.922s-10.184 4.8711-12.84 4.1758c-2.6562-0.69531-12.578-0.57031-19.594-6.2578-7.0156-5.6875-7.457-4.9297-9.8594-8.1523-2.4023-3.2227-3.9531-5.6875-3.9531-5.6875z"/>
 </g>
<text x="0.0" y="117.5" font-size="5.0" font-weight="bold" font-family="Arbeit Regular, Helvetica, Arial-Unicode, Arial, Sans-serif" fill="#000000">Created by yode tive</text><text x="0.0" y="122.5" font-size="5.0" font-weight="bold" font-family="Arbeit Regular, Helvetica, Arial-Unicode, Arial, Sans-serif" fill="#000000">from Noun Project</text></svg>